<svg version="1.1" id="Layer_1" xmlns="http://www.w3.org/2000/svg" xmlns:xlink="http://www.w3.org/1999/xlink" x="0px" y="0px"
	 width="100%" viewBox="0 0 507 437" enable-background="new 0 0 507 437" xml:space="preserve">
<path fill="#000000" opacity="1.000000" stroke="none" 
	d="
M1.000000,151.000000 
	C1.000000,100.666664 1.000000,50.833332 1.000000,1.000000 
	C170.000000,1.000000 339.000000,1.000000 508.000000,1.000000 
	C508.000000,146.666672 508.000000,292.333344 508.000000,438.000000 
	C339.000000,438.000000 170.000000,438.000000 1.000000,438.000000 
	C1.000000,342.500000 1.000000,247.000000 1.000000,151.000000 
M382.993286,272.997253 
	C382.993286,272.997253 382.999329,273.057800 383.735565,273.073151 
	C384.584656,272.728455 385.433746,272.383759 386.696259,272.001587 
	C386.696259,272.001587 387.094788,271.885498 387.961273,271.948639 
	C390.701172,271.640503 393.441071,271.332367 397.018555,271.010803 
	C402.199188,269.976410 407.476990,269.284058 412.542511,267.844635 
	C428.911346,263.193329 442.832458,254.817978 450.405243,238.948181 
	C455.460266,228.354767 456.852783,217.022202 455.273071,205.029816 
	C452.661102,185.201385 445.040680,167.364105 435.677185,150.091385 
	C427.936432,135.812195 419.452423,121.925194 412.018951,107.492966 
	C403.276184,90.518539 395.584442,73.004181 386.911804,55.991650 
	C381.299622,44.982578 373.553802,35.610703 363.199554,28.381102 
	C346.780090,16.916599 328.069458,13.370928 308.771210,12.127237 
	C297.844971,11.423087 286.828339,12.265351 275.865875,11.947752 
	C257.349335,11.411301 239.060989,13.048591 221.534103,19.022661 
	C199.015320,26.698233 184.003571,41.736828 179.969986,65.952187 
	C176.872864,84.545441 173.391098,102.992172 166.685165,120.718689 
	C165.405960,124.100128 163.388672,125.644913 160.282410,125.867790 
	C149.055923,126.673286 137.809021,127.191589 126.580208,127.968353 
	C120.491768,128.389526 114.412643,129.014572 108.350197,129.725601 
	C99.818253,130.726303 91.184433,131.330505 82.816956,133.136429 
	C73.356033,135.178391 63.895695,137.727661 54.884827,141.217529 
	C44.524418,145.230072 37.470432,153.024200 36.402412,164.508301 
	C35.795158,171.037949 35.866123,177.898499 37.198364,184.283112 
	C39.718975,196.362823 42.324276,208.620071 46.838917,220.034439 
	C51.498421,231.815063 57.932938,243.009460 64.562431,253.867126 
	C73.833397,269.050903 85.427185,282.410614 99.189171,293.854004 
	C113.802338,306.005188 129.329178,316.491730 147.604904,322.391663 
	C150.726410,323.399353 151.386276,325.325989 150.303528,328.604431 
	C144.750351,345.418701 143.007507,362.462067 146.959915,380.004333 
	C150.409744,395.316040 157.490997,407.781158 172.213318,414.566193 
	C185.985703,420.913361 199.949066,421.597473 212.964279,412.862244 
	C218.520767,409.132965 223.617218,404.302124 227.802322,399.074829 
	C231.269043,394.744843 234.569656,392.631409 240.216873,392.836884 
	C247.825668,393.113739 255.506790,392.716583 263.094696,391.973663 
	C277.730743,390.540680 292.374573,389.013824 306.921478,386.885406 
	C327.765320,383.835602 348.291138,379.292511 367.761505,370.925690 
	C377.126801,366.901245 386.503204,362.631409 390.733673,352.390045 
	C392.350891,348.475128 392.898590,344.118408 393.998627,339.032715 
	C393.982819,337.227997 394.044922,335.418579 393.935669,333.619537 
	C393.674042,329.310944 393.331787,325.007294 393.014404,320.303101 
	C393.014404,320.303101 392.902618,319.920502 392.969727,319.129578 
	C392.652069,317.684021 392.334412,316.238495 392.015869,314.037781 
	C390.305481,307.623718 388.517242,301.251160 382.976898,296.272980 
	C382.665436,295.742401 382.354004,295.211823 382.021942,294.301514 
	C382.021942,294.301514 381.914337,293.936829 381.947357,293.010864 
	C381.942169,287.022430 381.936981,281.034027 382.026001,274.696411 
	C382.026001,274.696411 382.022247,274.334778 382.511658,274.010437 
	C382.692230,273.675873 382.872803,273.341309 382.993286,272.997253 
z"/>
<path fill="#1A3D4F" opacity="1.000000" stroke="none" 
	d="
M381.914337,293.936829 
	C381.914337,293.936829 382.021942,294.301514 382.018646,294.809326 
	C382.306702,295.853607 382.598083,296.390015 382.889465,296.926453 
	C388.517242,301.251160 390.305481,307.623718 391.983948,314.806396 
	C392.268890,317.023499 392.585754,318.472015 392.902618,319.920502 
	C392.902618,319.920502 393.014404,320.303101 392.964142,320.990540 
	C393.253815,327.773010 393.593750,333.868011 393.933685,339.963043 
	C392.898590,344.118408 392.350891,348.475128 390.733673,352.390045 
	C386.503204,362.631409 377.126801,366.901245 367.761505,370.925690 
	C348.291138,379.292511 327.765320,383.835602 306.921478,386.885406 
	C292.374573,389.013824 277.730743,390.540680 263.094696,391.973663 
	C255.506790,392.716583 247.825668,393.113739 240.216873,392.836884 
	C234.569656,392.631409 231.269043,394.744843 227.802322,399.074829 
	C223.617218,404.302124 218.520767,409.132965 212.964279,412.862244 
	C199.949066,421.597473 185.985703,420.913361 172.213318,414.566193 
	C157.490997,407.781158 150.409744,395.316040 146.959915,380.004333 
	C143.007507,362.462067 144.750351,345.418701 150.303528,328.604431 
	C151.386276,325.325989 150.726410,323.399353 147.604904,322.391663 
	C129.329178,316.491730 113.802338,306.005188 99.189171,293.854004 
	C85.427185,282.410614 73.833397,269.050903 64.562431,253.867126 
	C57.932938,243.009460 51.498421,231.815063 46.838917,220.034439 
	C42.324276,208.620071 39.718975,196.362823 37.198364,184.283112 
	C35.866123,177.898499 35.795158,171.037949 36.402412,164.508301 
	C37.470432,153.024200 44.524418,145.230072 54.884827,141.217529 
	C63.895695,137.727661 73.356033,135.178391 82.816956,133.136429 
	C91.184433,131.330505 99.818253,130.726303 108.350197,129.725601 
	C114.412643,129.014572 120.491768,128.389526 126.580208,127.968353 
	C137.809021,127.191589 149.055923,126.673286 160.282410,125.867790 
	C163.388672,125.644913 165.405960,124.100128 166.685165,120.718689 
	C173.391098,102.992172 176.872864,84.545441 179.969986,65.952187 
	C184.003571,41.736828 199.015320,26.698233 221.534103,19.022661 
	C239.060989,13.048591 257.349335,11.411301 275.865875,11.947752 
	C286.828339,12.265351 297.844971,11.423087 308.771210,12.127237 
	C328.069458,13.370928 346.780090,16.916599 363.199554,28.381102 
	C373.553802,35.610703 381.299622,44.982578 386.911804,55.991650 
	C395.584442,73.004181 403.276184,90.518539 412.018951,107.492966 
	C419.452423,121.925194 427.936432,135.812195 435.677185,150.091385 
	C445.040680,167.364105 452.661102,185.201385 455.273071,205.029816 
	C456.852783,217.022202 455.460266,228.354767 450.405243,238.948181 
	C442.832458,254.817978 428.911346,263.193329 412.542511,267.844635 
	C407.476990,269.284058 402.199188,269.976410 396.151215,270.992310 
	C392.554169,271.277710 389.824493,271.581604 387.094788,271.885498 
	C387.094788,271.885498 386.696259,272.001587 386.122131,271.978455 
	C384.698456,272.322815 383.848907,272.690308 382.999329,273.057800 
	C382.999329,273.057800 382.993286,272.997253 382.772003,273.150208 
	C382.374542,273.647034 382.198395,273.990906 382.022247,274.334778 
	C382.022247,274.334778 382.026001,274.696411 381.735107,275.199036 
	C381.600891,281.780029 381.757629,287.858429 381.914337,293.936829 
M106.479309,149.526535 
	C106.479309,149.526535 106.477417,149.611481 105.964096,150.003510 
	C105.976341,151.152771 105.812263,152.336243 106.027550,153.446106 
	C108.823555,167.860382 107.276604,181.512817 98.486855,194.331802 
	C97.004868,195.917938 95.522881,197.504074 93.395760,199.074554 
	C92.808975,199.647446 92.222191,200.220352 91.254318,200.842117 
	C91.254318,200.842117 91.041862,201.162262 90.314514,201.159912 
	C81.923935,203.942993 73.533348,206.726074 64.885681,209.594421 
	C71.655495,228.760529 81.342278,246.166763 94.970055,261.411469 
	C109.345146,277.492218 126.507225,289.363098 146.672287,296.897186 
	C168.742615,305.143127 191.401596,306.817932 214.387009,301.910156 
	C229.026306,298.784424 242.383423,292.656250 254.009521,282.148865 
	C254.338211,281.762878 254.666916,281.376892 255.671448,280.908264 
	C259.103638,277.267090 262.535828,273.625916 266.443237,269.748535 
	C266.709045,269.304749 266.974854,268.860962 267.878876,268.240845 
	C268.523468,267.143860 269.168030,266.046906 270.129089,264.714294 
	C270.129089,264.714294 270.184204,264.323639 270.826141,264.104797 
	C271.511810,262.726013 272.197479,261.347229 273.192963,259.775238 
	C273.192963,259.775238 273.237976,259.412872 273.839722,259.202820 
	C274.141052,258.447998 274.442383,257.693146 275.153656,256.603851 
	C275.239075,256.269196 275.324524,255.934555 275.980774,255.176758 
	C278.084778,247.092392 280.188782,239.008026 282.516479,230.152374 
	C281.353180,228.782410 280.329010,227.255814 278.998535,226.074112 
	C275.939056,223.356812 272.509644,221.016144 269.717651,218.062088 
	C268.884399,217.180435 269.098328,214.392685 269.900330,213.190933 
	C270.473999,212.331345 273.121643,212.011520 274.341187,212.562820 
	C282.953400,216.456146 291.611481,216.760147 300.646637,214.191818 
	C302.239899,213.738937 305.084534,214.816650 306.096039,216.144058 
	C306.836945,217.116394 306.067200,220.114273 304.994507,221.385559 
	C303.454590,223.210541 301.203979,224.876953 298.939972,225.557983 
	C294.219543,226.977921 293.487885,229.898468 293.237671,234.425537 
	C291.832825,259.842316 283.645477,282.528870 265.124146,300.769623 
	C264.485687,301.398468 264.107788,302.291840 263.326172,303.497223 
	C264.566559,303.742554 265.321503,304.027283 266.073822,304.020416 
	C278.636780,303.906006 291.023254,302.373291 302.833649,297.988861 
	C317.978729,292.366425 330.271088,283.361572 334.797913,266.905060 
	C339.837616,248.583984 336.670349,230.986572 329.053101,213.255280 
	C313.906860,176.369064 306.288422,138.335098 311.675598,98.272766 
	C312.687744,100.497536 313.338348,102.815758 313.820190,105.168541 
	C316.190277,116.741791 318.205200,128.397583 320.920837,139.888245 
	C326.760437,164.597122 334.119873,188.801285 348.521027,210.126831 
	C358.744934,225.266632 371.654602,236.584656 390.867950,238.809296 
	C409.270874,240.940125 427.474213,230.512497 433.357788,213.508835 
	C433.428894,212.885376 433.500000,212.261902 434.075958,211.257095 
	C434.189362,210.478638 434.302734,209.700195 434.700378,208.034912 
	C436.977325,186.834656 429.597137,168.164124 419.496552,150.228531 
	C407.350555,128.660950 395.127136,107.137016 382.980225,85.569969 
	C377.519592,75.874535 372.549561,65.878288 366.649475,56.461830 
	C360.896423,47.280064 354.367493,38.172844 343.598236,34.493576 
	C333.292023,30.972486 322.532562,28.778061 311.590515,25.550362 
	C311.032532,25.551769 310.474579,25.553179 309.069519,25.252840 
	C300.016266,24.795876 290.963013,24.338909 281.012207,23.626678 
	C275.018524,23.871952 269.024811,24.117226 262.250854,24.192574 
	C260.515289,24.516851 258.779724,24.841127 256.300537,24.996469 
	C255.562393,25.137653 254.824249,25.278837 253.356506,25.139576 
	C251.664001,25.558634 249.971481,25.977692 247.718765,26.238304 
	C247.167862,26.390196 246.616943,26.542088 245.442795,26.407139 
	C240.743912,27.778549 236.045013,29.149961 230.725677,30.458305 
	C230.165741,30.700962 229.605804,30.943619 228.312347,31.102028 
	C225.992676,32.250668 223.672989,33.399311 220.851685,34.580791 
	C220.579880,34.767353 220.308090,34.953918 219.388535,35.052349 
	C218.748230,35.593239 218.107925,36.134125 216.901276,36.845215 
	C216.292084,37.332184 215.682892,37.819153 214.390060,38.278809 
	C210.280792,42.191944 206.171509,46.105083 201.761902,50.173981 
	C201.761902,50.173981 201.704086,50.507320 201.061539,50.774578 
	C192.542557,63.261169 191.032425,77.560738 190.135803,92.711655 
	C190.158218,93.156609 190.180634,93.601562 189.758942,94.684715 
	C187.796951,104.574089 185.834976,114.463455 183.621643,125.619736 
	C201.906158,125.619736 220.077408,125.619736 238.248657,125.619736 
	C238.240936,126.054710 238.233215,126.489685 238.225479,126.924660 
	C237.578979,127.423737 236.932480,127.922813 235.865234,128.277069 
	C235.542816,128.258392 235.280045,128.374588 234.572037,128.322250 
	C233.504501,128.731552 232.436966,129.140854 230.923889,129.404709 
	C230.593262,129.391403 230.305786,129.496338 229.435898,129.407684 
	C224.721313,130.413010 220.006729,131.418350 214.725784,132.272522 
	C214.170273,132.425369 213.614746,132.578201 212.401428,132.433472 
	C204.031845,133.768158 195.662247,135.102844 186.593277,136.253571 
	C185.411804,136.430069 184.230316,136.606567 182.401443,136.474716 
	C175.955902,137.394958 169.510345,138.315186 162.318008,139.071594 
	C161.577301,139.211975 160.836594,139.352356 159.334396,139.218384 
	C157.334320,139.647018 155.334259,140.075638 152.765961,140.348572 
	C152.197617,140.473862 151.629288,140.599152 150.409882,140.407394 
	C144.960785,141.346268 139.511688,142.285141 133.389145,143.088730 
	C132.957748,143.222992 132.526352,143.357239 131.410126,143.218796 
	C130.059341,143.655838 128.708557,144.092896 126.909355,144.406723 
	C126.584206,144.410980 126.300034,144.521027 125.433533,144.449509 
	C121.972473,145.359467 118.511414,146.269424 114.372108,147.120682 
	C113.949249,147.270554 113.526390,147.420425 112.407738,147.298157 
	C110.453056,148.022476 108.498375,148.746780 106.479309,149.526535 
M210.948486,383.437531 
	C211.139816,383.128052 211.331131,382.818542 212.111969,382.159271 
	C220.035995,369.267151 228.041550,356.424194 235.855194,343.465515 
	C240.992584,334.945343 237.192062,328.120483 227.213333,327.879822 
	C218.837402,327.677826 211.611816,330.838226 205.324921,336.233521 
	C197.019699,343.360901 191.694366,352.507324 187.643814,362.510345 
	C187.192535,363.624756 186.560471,364.665955 186.012253,365.741119 
	C185.446213,365.669891 184.880173,365.598633 184.314133,365.527405 
	C184.314133,360.725952 183.937180,355.887451 184.404373,351.131866 
	C185.069855,344.358124 186.710785,337.674591 187.269196,330.897644 
	C187.769058,324.831207 184.947464,322.966583 179.215302,325.051910 
	C170.139648,328.353638 166.167725,335.868469 163.103699,344.908600 
	C162.665604,346.616669 162.227493,348.324768 161.412140,350.649841 
	C161.323639,351.120392 161.235138,351.590912 160.700638,352.434662 
	C160.686234,352.987854 160.671829,353.541016 160.335922,354.859955 
	C160.265274,356.238373 160.194626,357.616821 159.683899,359.650513 
	C159.621841,361.489868 159.559769,363.329193 159.346313,365.835266 
	C159.412415,366.509796 159.478531,367.184296 159.217270,368.617157 
	C159.545975,370.395721 159.874680,372.174316 160.177826,374.602478 
	C160.254730,375.027802 160.331635,375.453094 160.180115,376.656921 
	C161.695679,380.561798 163.211258,384.466705 164.850327,388.704376 
	C164.850327,388.704376 165.098190,388.958466 165.096786,389.588135 
	C165.632050,390.190521 166.167328,390.792938 166.820099,391.723389 
	C166.820099,391.723389 167.067612,391.968597 167.125046,392.647797 
	C171.369186,398.395844 176.795837,402.110138 184.954437,402.759888 
	C186.924683,402.679108 188.894928,402.598328 191.577591,402.736542 
	C193.773529,401.527985 195.969482,400.319427 198.771057,398.836945 
	C202.682571,393.689575 206.594086,388.542236 210.424103,383.332764 
	C210.424103,383.332764 210.398926,383.432129 210.948486,383.437531 
M363.179382,354.597351 
	C378.822998,348.313721 386.213623,320.969238 374.626404,310.864075 
	C371.210785,313.565857 367.727814,316.320862 363.490234,319.117523 
	C359.468262,321.285065 355.446289,323.452576 350.808319,325.702515 
	C349.873627,326.139801 348.938934,326.577087 347.226196,326.962433 
	C341.282532,329.167786 335.338867,331.373138 328.948486,333.476807 
	C328.635773,333.474854 328.342010,333.548492 327.476410,333.453278 
	C324.657959,334.325226 321.839478,335.197205 318.349213,336.087769 
	C317.927917,336.232635 317.506622,336.377472 316.432465,336.312714 
	C315.433838,336.742737 314.435211,337.172760 312.971954,337.524200 
	C312.652649,337.531067 312.348755,337.602966 311.442688,337.477661 
	C307.656708,338.404053 303.870758,339.330444 299.404297,340.176422 
	C298.963776,340.284760 298.523254,340.393097 297.387604,340.267914 
	C296.288818,340.604156 295.190063,340.940399 293.402100,341.262634 
	C292.964844,341.399414 292.527557,341.536194 291.316498,341.355957 
	C285.700928,341.959503 280.062286,342.403687 274.476318,343.211884 
	C268.985474,344.006256 262.901184,343.673676 259.308502,349.212433 
	C253.891251,357.564056 248.554459,365.968567 243.283539,374.413025 
	C242.866455,375.081207 243.228577,376.235809 243.228577,376.777740 
	C249.950806,376.777740 256.420258,377.162323 262.822174,376.669647 
	C269.230682,376.176453 275.571716,374.806854 282.615753,373.887726 
	C283.052856,373.787842 283.489990,373.687958 284.620636,373.818726 
	C285.739655,373.521301 286.858643,373.223877 288.645020,372.941620 
	C289.071289,372.820465 289.497559,372.699310 290.755066,372.803650 
	C295.820282,371.817749 300.885468,370.831818 306.624878,369.884521 
	C307.056427,369.766907 307.487976,369.649323 308.705780,369.747162 
	C314.114899,368.428619 319.524048,367.110077 325.611969,365.825714 
	C326.043396,365.699341 326.474823,365.572968 327.664001,365.593658 
	C335.634674,363.194916 343.605347,360.796204 352.201477,358.380615 
	C352.780182,358.151001 353.358856,357.921387 354.669159,357.845093 
	C357.267853,356.824493 359.866547,355.803925 363.179382,354.597351 
M86.390953,151.957077 
	C77.496521,150.553955 69.540619,152.261246 63.326603,159.224625 
	C60.090611,162.850830 60.298035,165.778427 63.679081,169.219849 
	C71.000015,176.671509 85.858185,175.267090 91.863411,166.555817 
	C95.322983,161.537292 92.959763,154.181335 86.390953,151.957077 
z"/>
<path fill="#466170" opacity="1.000000" stroke="none" 
	d="
M393.966156,339.497864 
	C393.593750,333.868011 393.253815,327.773010 392.967957,321.189819 
	C393.331787,325.007294 393.674042,329.310944 393.935669,333.619537 
	C394.044922,335.418579 393.982819,337.227997 393.966156,339.497864 
z"/>
<path fill="#385665" opacity="1.000000" stroke="none" 
	d="
M381.930847,293.473846 
	C381.757629,287.858429 381.600891,281.780029 381.687988,275.373596 
	C381.936981,281.034027 381.942169,287.022430 381.930847,293.473846 
z"/>
<path fill="#385665" opacity="1.000000" stroke="none" 
	d="
M387.528015,271.917053 
	C389.824493,271.581604 392.554169,271.277710 395.732422,270.999023 
	C393.441071,271.332367 390.701172,271.640503 387.528015,271.917053 
z"/>
<path fill="#466170" opacity="1.000000" stroke="none" 
	d="
M392.936157,319.525024 
	C392.585754,318.472015 392.268890,317.023499 391.984375,315.183960 
	C392.334412,316.238495 392.652069,317.684021 392.936157,319.525024 
z"/>
<path fill="#385665" opacity="1.000000" stroke="none" 
	d="
M383.367432,273.065491 
	C383.848907,272.690308 384.698456,272.322815 385.915405,271.997192 
	C385.433746,272.383759 384.584656,272.728455 383.367432,273.065491 
z"/>
<path fill="#385665" opacity="1.000000" stroke="none" 
	d="
M382.933167,296.599731 
	C382.598083,296.390015 382.306702,295.853607 382.028961,294.999207 
	C382.354004,295.211823 382.665436,295.742401 382.933167,296.599731 
z"/>
<path fill="#385665" opacity="1.000000" stroke="none" 
	d="
M382.266968,274.172607 
	C382.198395,273.990906 382.374542,273.647034 382.802063,273.154968 
	C382.872803,273.341309 382.692230,273.675873 382.266968,274.172607 
z"/>
<path fill="#FDFEFE" opacity="1.000000" stroke="none" 
	d="
M270.184204,264.323639 
	C270.184204,264.323639 270.129089,264.714294 269.623810,264.875458 
	C268.492584,266.163483 267.866638,267.290314 267.240692,268.417175 
	C266.974854,268.860962 266.709045,269.304749 265.862183,269.885376 
	C261.852631,273.678436 258.424103,277.334656 254.995605,280.990906 
	C254.666916,281.376892 254.338211,281.762878 253.362534,282.162109 
	C224.619980,292.548340 196.124527,294.268066 167.185715,286.082916 
	C149.106232,280.969208 133.372803,271.708008 119.506248,259.114044 
	C104.758766,245.720016 93.713333,229.752243 85.618965,211.586304 
	C83.837837,207.588943 83.595428,205.175140 88.339073,203.763779 
	C89.403763,203.447006 90.149361,202.057770 91.041855,201.162262 
	C91.041862,201.162262 91.254318,200.842117 91.784286,200.859924 
	C92.889801,200.281876 93.465347,199.686050 94.040894,199.090225 
	C95.522881,197.504074 97.004868,195.917938 99.127579,194.157684 
	C100.637619,193.250076 101.815109,192.687210 102.329903,191.757446 
	C109.768906,178.321609 110.979294,164.239441 106.477417,149.611481 
	C106.477417,149.611481 106.479309,149.526535 106.882507,149.599701 
	C109.224976,148.972015 111.164253,148.271149 113.103531,147.570282 
	C113.526390,147.420425 113.949249,147.270554 114.979347,147.377060 
	C119.076668,146.667923 122.566750,145.702393 126.056831,144.736862 
	C126.300034,144.521027 126.584206,144.410980 127.499832,144.627151 
	C129.425201,144.395554 130.760071,143.943527 132.094955,143.491501 
	C132.526352,143.357239 132.957748,143.222992 134.024628,143.395477 
	C140.127045,142.709641 145.594009,141.717056 151.060959,140.724457 
	C151.629288,140.599152 152.197617,140.473862 153.462265,140.587662 
	C156.137680,140.382080 158.116776,139.937408 160.095886,139.492737 
	C160.836594,139.352356 161.577301,139.211975 163.002594,139.393738 
	C170.141052,138.738281 176.594955,137.760666 183.048843,136.783066 
	C184.230316,136.606567 185.411804,136.430069 187.403503,136.521774 
	C193.246597,136.314545 198.310135,136.043030 203.301453,135.291672 
	C206.607605,134.794006 209.810257,133.608582 213.059235,132.731049 
	C213.614746,132.578201 214.170273,132.425369 215.454529,132.529190 
	C220.809341,131.763748 225.435410,130.741638 230.061478,129.719528 
	C230.305786,129.496338 230.593262,129.391403 231.545685,129.627014 
	C233.137299,129.441422 234.107117,129.033539 235.076950,128.625656 
	C235.280045,128.374588 235.542816,128.258392 236.493896,128.525543 
	C239.346161,128.274414 241.569748,127.774818 243.793335,127.275230 
	C243.701279,126.593140 243.609238,125.911049 243.517181,125.228951 
	C241.840683,124.835106 240.172501,124.141098 238.486389,124.094391 
	C223.543549,123.680405 208.598633,123.311470 193.652039,123.074760 
	C185.031662,122.938225 184.841812,122.781082 187.826218,114.406616 
	C187.937622,114.093979 188.173569,113.804047 188.206604,113.488373 
	C188.884750,107.009079 189.541809,100.527580 190.203049,94.046516 
	C190.180634,93.601562 190.158218,93.156609 190.587479,92.249016 
	C191.373459,90.708549 191.801544,89.649986 192.027359,88.549889 
	C193.981445,79.030464 195.741882,69.467506 197.913544,59.998600 
	C198.666031,56.717632 200.411942,53.664513 201.704086,50.507324 
	C201.704086,50.507320 201.761902,50.173981 202.254211,50.077339 
	C206.855560,46.089165 210.964630,42.197639 215.073700,38.306114 
	C215.682892,37.819153 216.292084,37.332184 217.526672,36.837482 
	C218.780136,36.266663 219.408218,35.703575 220.036301,35.140488 
	C220.308090,34.953918 220.579880,34.767353 221.489960,34.661678 
	C224.434113,33.557137 226.739990,32.371708 229.045868,31.186279 
	C229.605804,30.943619 230.165741,30.700962 231.457031,30.606817 
	C236.814270,29.401543 241.440155,28.047758 246.066040,26.693975 
	C246.616943,26.542088 247.167862,26.390196 248.392792,26.497578 
	C250.739899,26.311239 252.413010,25.865627 254.086105,25.420017 
	C254.824249,25.278837 255.562393,25.137653 256.884613,25.307362 
	C259.652374,25.838503 260.834106,26.809948 259.989441,29.491192 
	C257.037872,34.894985 253.795670,39.802490 251.514099,45.122025 
	C236.913315,79.163971 241.156357,111.984428 258.476929,143.807083 
	C270.110840,165.181808 286.573273,182.435547 305.370758,197.512329 
	C312.829224,203.494476 321.051086,208.524796 328.925415,213.988464 
	C336.670349,230.986572 339.837616,248.583984 334.797913,266.905060 
	C330.271088,283.361572 317.978729,292.366425 302.833649,297.988861 
	C291.023254,302.373291 278.636780,303.906006 266.073822,304.020416 
	C265.321503,304.027283 264.566559,303.742554 263.326172,303.497223 
	C264.107788,302.291840 264.485687,301.398468 265.124146,300.769623 
	C283.645477,282.528870 291.832825,259.842316 293.237671,234.425537 
	C293.487885,229.898468 294.219543,226.977921 298.939972,225.557983 
	C301.203979,224.876953 303.454590,223.210541 304.994507,221.385559 
	C306.067200,220.114273 306.836945,217.116394 306.096039,216.144058 
	C305.084534,214.816650 302.239899,213.738937 300.646637,214.191818 
	C291.611481,216.760147 282.953400,216.456146 274.341187,212.562820 
	C273.121643,212.011520 270.473999,212.331345 269.900330,213.190933 
	C269.098328,214.392685 268.884399,217.180435 269.717651,218.062088 
	C272.509644,221.016144 275.939056,223.356812 278.998535,226.074112 
	C280.329010,227.255814 281.353180,228.782410 282.108307,230.798492 
	C279.603394,239.496368 277.506653,247.548141 275.409943,255.599915 
	C275.324524,255.934555 275.239075,256.269196 274.632324,256.861023 
	C273.820007,257.883087 273.528992,258.647980 273.237976,259.412872 
	C273.237976,259.412872 273.192963,259.775238 272.696808,259.932617 
	C271.528503,261.501221 270.856354,262.912445 270.184204,264.323639 
M236.981201,90.497231 
	C235.932175,86.527458 235.606155,82.162399 233.693848,78.664604 
	C228.658737,69.455040 217.603226,68.453239 210.739517,76.120247 
	C204.063690,83.577408 204.080231,97.216042 210.774109,104.624107 
	C217.069870,111.591560 226.129318,111.920914 231.784592,104.490936 
	C234.523895,100.891975 235.308243,95.805008 236.981201,90.497231 
z"/>
<path fill="#5DB2CF" opacity="1.000000" stroke="none" 
	d="
M328.989258,213.621872 
	C321.051086,208.524796 312.829224,203.494476 305.370758,197.512329 
	C286.573273,182.435547 270.110840,165.181808 258.476929,143.807083 
	C241.156357,111.984428 236.913315,79.163971 251.514099,45.122025 
	C253.795670,39.802490 257.037872,34.894985 260.296997,29.372751 
	C261.515778,27.419865 262.273438,25.891180 263.031128,24.362499 
	C269.024811,24.117226 275.018524,23.871952 281.602448,24.115339 
	C283.184967,25.071035 284.132141,25.749111 285.176544,25.972124 
	C294.576355,27.979328 304.122650,29.433990 313.375031,31.967260 
	C327.563049,35.851875 339.738007,43.507389 348.192291,55.624344 
	C355.006012,65.389977 360.379883,76.149574 366.611420,86.334274 
	C380.312775,108.727600 394.122131,131.055099 407.947021,153.372513 
	C416.717285,167.530258 424.654663,182.078354 429.204590,198.216766 
	C430.681152,203.453842 431.805023,208.790344 433.090210,214.081375 
	C427.474213,230.512497 409.270874,240.940125 390.867950,238.809296 
	C371.654602,236.584656 358.744934,225.266632 348.521027,210.126831 
	C334.119873,188.801285 326.760437,164.597122 320.920837,139.888245 
	C318.205200,128.397583 316.190277,116.741791 313.820190,105.168541 
	C313.338348,102.815758 312.687744,100.497536 311.675598,98.272766 
	C306.288422,138.335098 313.906860,176.369064 328.989258,213.621872 
M266.633179,109.868225 
	C269.976562,108.641846 273.987427,108.205307 276.542389,106.046028 
	C285.417389,98.545517 284.959198,81.912964 276.142639,74.348717 
	C271.957916,70.758408 267.232971,69.971748 262.179993,72.040672 
	C255.432587,74.803375 250.505005,84.278427 251.413895,92.365807 
	C252.494965,101.985519 257.506409,108.056328 266.633179,109.868225 
z"/>
<path fill="#D5D9DC" opacity="1.000000" stroke="none" 
	d="
M90.678185,201.161087 
	C90.149361,202.057770 89.403763,203.447006 88.339073,203.763779 
	C83.595428,205.175140 83.837837,207.588943 85.618965,211.586304 
	C93.713333,229.752243 104.758766,245.720016 119.506248,259.114044 
	C133.372803,271.708008 149.106232,280.969208 167.185715,286.082916 
	C196.124527,294.268066 224.619980,292.548340 253.111618,282.237183 
	C242.383423,292.656250 229.026306,298.784424 214.387009,301.910156 
	C191.401596,306.817932 168.742615,305.143127 146.672287,296.897186 
	C126.507225,289.363098 109.345146,277.492218 94.970055,261.411469 
	C81.342278,246.166763 71.655495,228.760529 64.885681,209.594421 
	C73.533348,206.726074 81.923935,203.942993 90.678185,201.161087 
z"/>
<path fill="#6AA1EB" opacity="1.000000" stroke="none" 
	d="
M160.123978,358.995239 
	C160.194626,357.616821 160.265274,356.238373 160.700317,354.384277 
	C161.092041,353.292908 161.119354,352.677185 161.146652,352.061462 
	C161.235138,351.590912 161.323639,351.120392 161.855103,350.167969 
	C162.739944,347.948914 163.181824,346.211761 163.623688,344.474609 
	C166.167725,335.868469 170.139648,328.353638 179.215302,325.051910 
	C184.947464,322.966583 187.769058,324.831207 187.269196,330.897644 
	C186.710785,337.674591 185.069855,344.358124 184.404373,351.131866 
	C183.937180,355.887451 184.314133,360.725952 184.314133,365.527405 
	C184.880173,365.598633 185.446213,365.669891 186.012253,365.741119 
	C186.560471,364.665955 187.192535,363.624756 187.643814,362.510345 
	C191.694366,352.507324 197.019699,343.360901 205.324921,336.233521 
	C211.611816,330.838226 218.837402,327.677826 227.213333,327.879822 
	C237.192062,328.120483 240.992584,334.945343 235.855194,343.465515 
	C228.041550,356.424194 220.035995,369.267151 211.610138,382.174896 
	C210.871841,382.604370 210.635376,383.018250 210.398926,383.432129 
	C210.398926,383.432129 210.424103,383.332764 210.068008,383.276367 
	C207.874527,384.247894 205.831085,385.025909 204.232834,386.343811 
	C192.823013,395.752350 174.275375,392.765228 167.035187,379.899139 
	C164.400955,375.218048 162.932129,369.881104 160.938812,364.464050 
	C160.672012,362.388245 160.397995,360.691742 160.123978,358.995239 
z"/>
<path fill="#86D1E1" opacity="1.000000" stroke="none" 
	d="
M433.223999,213.795105 
	C431.805023,208.790344 430.681152,203.453842 429.204590,198.216766 
	C424.654663,182.078354 416.717285,167.530258 407.947021,153.372513 
	C394.122131,131.055099 380.312775,108.727600 366.611420,86.334274 
	C360.379883,76.149574 355.006012,65.389977 348.192291,55.624344 
	C339.738007,43.507389 327.563049,35.851875 313.375031,31.967260 
	C304.122650,29.433990 294.576355,27.979328 285.176544,25.972124 
	C284.132141,25.749111 283.184967,25.071035 282.051208,24.242973 
	C290.963013,24.338909 300.016266,24.795876 309.571777,25.627827 
	C310.706818,26.002056 311.339539,26.001297 311.972290,26.000540 
	C322.532562,28.778061 333.292023,30.972486 343.598236,34.493576 
	C354.367493,38.172844 360.896423,47.280064 366.649475,56.461830 
	C372.549561,65.878288 377.519592,75.874535 382.980225,85.569969 
	C395.127136,107.137016 407.350555,128.660950 419.496552,150.228531 
	C429.597137,168.164124 436.977325,186.834656 434.282166,208.639465 
	C433.766327,210.042160 433.668701,210.840302 433.571106,211.638443 
	C433.500000,212.261902 433.428894,212.885376 433.223999,213.795105 
z"/>
<path fill="#43D6D6" opacity="1.000000" stroke="none" 
	d="
M298.082733,340.501465 
	C298.523254,340.393097 298.963776,340.284760 300.038513,340.420013 
	C304.468536,339.689056 308.264374,338.714508 312.060211,337.739960 
	C312.348755,337.602966 312.652649,337.531067 313.557678,337.670074 
	C315.124054,337.384735 316.104675,336.953522 317.085327,336.522308 
	C317.506622,336.377472 317.927917,336.232635 318.946777,336.300385 
	C322.385284,335.574585 325.226227,334.636169 328.067200,333.697723 
	C328.342010,333.548492 328.635773,333.474854 329.594971,333.607269 
	C336.162415,331.496613 342.083313,329.255493 348.004242,327.014374 
	C348.938934,326.577087 349.873627,326.139801 351.521484,325.728210 
	C356.297241,323.774750 360.359833,321.795624 364.625458,320.142914 
	C365.234833,322.570740 365.833740,324.655762 366.014496,326.776398 
	C366.825836,336.295166 364.490845,345.258850 360.618835,354.059143 
	C358.159821,355.316833 356.048676,356.504303 353.937531,357.691772 
	C353.358856,357.921387 352.780182,358.151001 351.445801,358.279205 
	C343.190247,360.109680 335.684631,362.020264 328.202698,364.019470 
	C327.680725,364.158936 327.334320,364.955566 326.906281,365.446594 
	C326.474823,365.572968 326.043396,365.699341 324.977783,365.599365 
	C318.868896,366.759216 313.394196,368.145477 307.919525,369.531738 
	C307.487976,369.649323 307.056427,369.766907 305.986633,369.643250 
	C300.206879,370.460693 295.065338,371.519440 289.923828,372.578156 
	C289.497559,372.699310 289.071289,372.820465 288.080170,372.718536 
	C286.319244,372.859650 285.123169,373.223877 283.927094,373.588074 
	C283.489990,373.687958 283.052856,373.787842 281.959137,373.632202 
	C278.850555,373.427002 276.398468,373.517487 273.946625,373.512390 
	C272.525696,373.509430 271.105133,373.352600 269.684387,373.265045 
	C269.782043,371.697723 269.499268,369.978668 270.051971,368.592804 
	C271.455872,365.072693 273.036499,361.589935 274.903168,358.294342 
	C278.816376,351.385590 281.709045,343.303131 291.445129,342.392426 
	C291.680573,342.370422 291.876160,341.922333 292.090302,341.672943 
	C292.527557,341.536194 292.964844,341.399414 293.984741,341.455902 
	C295.739166,341.266602 296.910950,340.884033 298.082733,340.501465 
z"/>
<path fill="#39B8BA" opacity="1.000000" stroke="none" 
	d="
M291.703400,341.514465 
	C291.876160,341.922333 291.680573,342.370422 291.445129,342.392426 
	C281.709045,343.303131 278.816376,351.385590 274.903168,358.294342 
	C273.036499,361.589935 271.455872,365.072693 270.051971,368.592804 
	C269.499268,369.978668 269.782043,371.697723 269.684387,373.265045 
	C271.105133,373.352600 272.525696,373.509430 273.946625,373.512390 
	C276.398468,373.517487 278.850555,373.427002 281.622437,373.599030 
	C275.571716,374.806854 269.230682,376.176453 262.822174,376.669647 
	C256.420258,377.162323 249.950806,376.777740 243.228577,376.777740 
	C243.228577,376.235809 242.866455,375.081207 243.283539,374.413025 
	C248.554459,365.968567 253.891251,357.564056 259.308502,349.212433 
	C262.901184,343.673676 268.985474,344.006256 274.476318,343.211884 
	C280.062286,342.403687 285.700928,341.959503 291.703400,341.514465 
z"/>
<path fill="#23556E" opacity="1.000000" stroke="none" 
	d="
M86.796295,152.001129 
	C92.959763,154.181335 95.322983,161.537292 91.863411,166.555817 
	C85.858185,175.267090 71.000015,176.671509 63.679081,169.219849 
	C60.298035,165.778427 60.090611,162.850830 63.326603,159.224625 
	C69.540619,152.261246 77.496521,150.553955 86.796295,152.001129 
z"/>
<path fill="#83DDDD" opacity="1.000000" stroke="none" 
	d="
M360.966736,353.988861 
	C364.490845,345.258850 366.825836,336.295166 366.014496,326.776398 
	C365.833740,324.655762 365.234833,322.570740 364.586792,319.956177 
	C364.345154,319.443024 364.244873,319.075867 364.244873,319.075867 
	C367.727814,316.320862 371.210785,313.565857 374.626404,310.864075 
	C386.213623,320.969238 378.822998,348.313721 362.466095,354.456116 
	C361.490784,354.206177 361.228760,354.097504 360.966736,353.988861 
z"/>
<path fill="#96B9EB" opacity="1.000000" stroke="none" 
	d="
M160.931580,364.843384 
	C162.932129,369.881104 164.400955,375.218048 167.035187,379.899139 
	C174.275375,392.765228 192.823013,395.752350 204.232834,386.343811 
	C205.831085,385.025909 207.874527,384.247894 210.108765,383.307434 
	C206.594086,388.542236 202.682571,393.689575 198.102783,398.979126 
	C195.244736,400.253387 193.054947,401.385468 190.865173,402.517578 
	C188.894928,402.598328 186.924683,402.679108 184.393753,402.356445 
	C178.244583,398.624878 172.656097,395.296722 167.067627,391.968597 
	C167.067612,391.968597 166.820099,391.723389 166.805756,391.224304 
	C166.227005,390.136322 165.662598,389.547394 165.098175,388.958466 
	C165.098190,388.958466 164.850327,388.704376 164.821274,388.138550 
	C163.330994,383.674591 161.869766,379.776520 160.408539,375.878418 
	C160.331635,375.453094 160.254730,375.027802 160.397049,373.998230 
	C160.259064,371.548920 159.901855,369.703857 159.544647,367.858826 
	C159.478531,367.184296 159.412415,366.509796 159.666779,365.480103 
	C160.301819,365.030426 160.616608,364.936584 160.931580,364.843384 
z"/>
<path fill="#D5D9DC" opacity="1.000000" stroke="none" 
	d="
M189.980988,94.365616 
	C189.541809,100.527580 188.884750,107.009079 188.206604,113.488373 
	C188.173569,113.804047 187.937622,114.093979 187.826218,114.406616 
	C184.841812,122.781082 185.031662,122.938225 193.652039,123.074760 
	C208.598633,123.311470 223.543549,123.680405 238.486389,124.094391 
	C240.172501,124.141098 241.840683,124.835106 243.517181,125.228951 
	C243.609238,125.911049 243.701279,126.593140 243.793335,127.275230 
	C241.569748,127.774818 239.346161,128.274414 236.704285,128.597946 
	C236.932480,127.922813 237.578979,127.423737 238.225479,126.924660 
	C238.233215,126.489685 238.240936,126.054710 238.248657,125.619736 
	C220.077408,125.619736 201.906158,125.619736 183.621643,125.619736 
	C185.834976,114.463455 187.796951,104.574089 189.980988,94.365616 
z"/>
<path fill="#D5D9DC" opacity="1.000000" stroke="none" 
	d="
M106.220757,149.807495 
	C110.979294,164.239441 109.768906,178.321609 102.329903,191.757446 
	C101.815109,192.687210 100.637619,193.250076 99.417191,194.007507 
	C107.276604,181.512817 108.823555,167.860382 106.027550,153.446106 
	C105.812263,152.336243 105.976341,151.152771 106.220757,149.807495 
z"/>
<path fill="#D5D9DC" opacity="1.000000" stroke="none" 
	d="
M201.382812,50.640953 
	C200.411942,53.664513 198.666031,56.717632 197.913544,59.998600 
	C195.741882,69.467506 193.981445,79.030464 192.027359,88.549889 
	C191.801544,89.649986 191.373459,90.708549 190.707947,91.933853 
	C191.032425,77.560738 192.542557,63.261169 201.382812,50.640953 
z"/>
<path fill="#D5D9DC" opacity="1.000000" stroke="none" 
	d="
M212.730331,132.582260 
	C209.810257,133.608582 206.607605,134.794006 203.301453,135.291672 
	C198.310135,136.043030 193.246597,136.314545 187.753204,136.613754 
	C195.662247,135.102844 204.031845,133.768158 212.730331,132.582260 
z"/>
<path fill="#39B8BA" opacity="1.000000" stroke="none" 
	d="
M327.285156,365.520142 
	C327.334320,364.955566 327.680725,364.158936 328.202698,364.019470 
	C335.684631,362.020264 343.190247,360.109680 351.133087,358.287628 
	C343.605347,360.796204 335.634674,363.194916 327.285156,365.520142 
z"/>
<path fill="#D5D9DC" opacity="1.000000" stroke="none" 
	d="
M275.695374,255.388336 
	C277.506653,247.548141 279.603394,239.496368 281.996460,231.184128 
	C280.188782,239.008026 278.084778,247.092392 275.695374,255.388336 
z"/>
<path fill="#D5D9DC" opacity="1.000000" stroke="none" 
	d="
M182.725143,136.628891 
	C176.594955,137.760666 170.141052,138.738281 163.375977,139.475647 
	C169.510345,138.315186 175.955902,137.394958 182.725143,136.628891 
z"/>
<path fill="#7096C3" opacity="1.000000" stroke="none" 
	d="
M167.096344,392.308197 
	C172.656097,395.296722 178.244583,398.624878 183.983429,402.245117 
	C176.795837,402.110138 171.369186,398.395844 167.096344,392.308197 
z"/>
<path fill="#D5D9DC" opacity="1.000000" stroke="none" 
	d="
M214.731873,38.292458 
	C210.964630,42.197639 206.855560,46.089165 202.404373,49.999458 
	C206.171509,46.105083 210.280792,42.191944 214.731873,38.292458 
z"/>
<path fill="#39B8BA" opacity="1.000000" stroke="none" 
	d="
M308.312653,369.639465 
	C313.394196,368.145477 318.868896,366.759216 324.638367,365.582275 
	C319.524048,367.110077 314.114899,368.428619 308.312653,369.639465 
z"/>
<path fill="#D5D9DC" opacity="1.000000" stroke="none" 
	d="
M150.735413,140.565933 
	C145.594009,141.717056 140.127045,142.709641 134.361343,143.463135 
	C139.511688,142.285141 144.960785,141.346268 150.735413,140.565933 
z"/>
<path fill="#39B8BA" opacity="1.000000" stroke="none" 
	d="
M290.339447,372.690918 
	C295.065338,371.519440 300.206879,370.460693 305.649536,369.623962 
	C300.885468,370.831818 295.820282,371.817749 290.339447,372.690918 
z"/>
<path fill="#39B8BA" opacity="1.000000" stroke="none" 
	d="
M347.615234,326.988403 
	C342.083313,329.255493 336.162415,331.496613 329.818359,333.658112 
	C335.338867,331.373138 341.282532,329.167786 347.615234,326.988403 
z"/>
<path fill="#D5D9DC" opacity="1.000000" stroke="none" 
	d="
M255.333527,280.949585 
	C258.424103,277.334656 261.852631,273.678436 265.624573,270.003479 
	C262.535828,273.625916 259.103638,277.267090 255.333527,280.949585 
z"/>
<path fill="#D5D9DC" opacity="1.000000" stroke="none" 
	d="
M245.754425,26.550556 
	C241.440155,28.047758 236.814270,29.401543 231.767258,30.638351 
	C236.045013,29.149961 240.743912,27.778549 245.754425,26.550556 
z"/>
<path fill="#D5D9DC" opacity="1.000000" stroke="none" 
	d="
M229.748688,129.563599 
	C225.435410,130.741638 220.809341,131.763748 215.737701,132.604767 
	C220.006729,131.418350 224.721313,130.413010 229.748688,129.563599 
z"/>
<path fill="#39B8BA" opacity="1.000000" stroke="none" 
	d="
M363.867554,319.096680 
	C364.244873,319.075867 364.345154,319.443024 364.383789,319.629761 
	C360.359833,321.795624 356.297241,323.774750 351.829468,325.687012 
	C355.446289,323.452576 359.468262,321.285065 363.867554,319.096680 
z"/>
<path fill="#7096C3" opacity="1.000000" stroke="none" 
	d="
M160.294342,376.267670 
	C161.869766,379.776520 163.330994,383.674591 164.759521,387.972137 
	C163.211258,384.466705 161.695679,380.561798 160.294342,376.267670 
z"/>
<path fill="#D5D9DC" opacity="1.000000" stroke="none" 
	d="
M125.745178,144.593185 
	C122.566750,145.702393 119.076668,146.667923 115.318466,147.406403 
	C118.511414,146.269424 121.972473,145.359467 125.745178,144.593185 
z"/>
<path fill="#39B8BA" opacity="1.000000" stroke="none" 
	d="
M311.751465,337.608826 
	C308.264374,338.714508 304.468536,339.689056 300.378723,340.460205 
	C303.870758,339.330444 307.656708,338.404053 311.751465,337.608826 
z"/>
<path fill="#D5D9DC" opacity="1.000000" stroke="none" 
	d="
M262.640991,24.277534 
	C262.273438,25.891180 261.515778,27.419865 260.450562,29.066990 
	C260.834106,26.809948 259.652374,25.838503 257.256409,25.391827 
	C258.779724,24.841127 260.515289,24.516851 262.640991,24.277534 
z"/>
<path fill="#39B8BA" opacity="1.000000" stroke="none" 
	d="
M327.771790,333.575500 
	C325.226227,334.636169 322.385284,335.574585 319.282654,336.291077 
	C321.839478,335.197205 324.657959,334.325226 327.771790,333.575500 
z"/>
<path fill="#39B8BA" opacity="1.000000" stroke="none" 
	d="
M360.618835,354.059143 
	C361.228760,354.097504 361.490784,354.206177 362.109009,354.549133 
	C359.866547,355.803925 357.267853,356.824493 354.303345,357.768433 
	C356.048676,356.504303 358.159821,355.316833 360.618835,354.059143 
z"/>
<path fill="#7096C3" opacity="1.000000" stroke="none" 
	d="
M191.221375,402.627045 
	C193.054947,401.385468 195.244736,400.253387 197.799988,399.116119 
	C195.969482,400.319427 193.773529,401.527985 191.221375,402.627045 
z"/>
<path fill="#D5D9DC" opacity="1.000000" stroke="none" 
	d="
M228.679108,31.144154 
	C226.739990,32.371708 224.434113,33.557137 221.740784,34.645256 
	C223.672989,33.399311 225.992676,32.250668 228.679108,31.144154 
z"/>
<path fill="#D5D9DC" opacity="1.000000" stroke="none" 
	d="
M159.715149,139.355560 
	C158.116776,139.937408 156.137680,140.382080 153.746384,140.665512 
	C155.334259,140.075638 157.334320,139.647018 159.715149,139.355560 
z"/>
<path fill="#7096C3" opacity="1.000000" stroke="none" 
	d="
M159.380951,368.237976 
	C159.901855,369.703857 160.259064,371.548920 160.409821,373.673401 
	C159.874680,372.174316 159.545975,370.395721 159.380951,368.237976 
z"/>
<path fill="#7096C3" opacity="1.000000" stroke="none" 
	d="
M160.938812,364.464050 
	C160.616608,364.936584 160.301819,365.030426 159.742462,365.146729 
	C159.559769,363.329193 159.621841,361.489868 159.903931,359.322876 
	C160.397995,360.691742 160.672012,362.388245 160.938812,364.464050 
z"/>
<path fill="#D5D9DC" opacity="1.000000" stroke="none" 
	d="
M112.755630,147.434219 
	C111.164253,148.271149 109.224976,148.972015 106.914703,149.571976 
	C108.498375,148.746780 110.453056,148.022476 112.755630,147.434219 
z"/>
<path fill="#D5D9DC" opacity="1.000000" stroke="none" 
	d="
M253.721313,25.279797 
	C252.413010,25.865627 250.739899,26.311239 248.672882,26.576801 
	C249.971481,25.977692 251.664001,25.558634 253.721313,25.279797 
z"/>
<path fill="#7096C3" opacity="1.000000" stroke="none" 
	d="
M163.363693,344.691589 
	C163.181824,346.211761 162.739944,347.948914 162.043732,349.859436 
	C162.227493,348.324768 162.665604,346.616669 163.363693,344.691589 
z"/>
<path fill="#D5D9DC" opacity="1.000000" stroke="none" 
	d="
M270.505188,264.214233 
	C270.856354,262.912445 271.528503,261.501221 272.541901,260.029236 
	C272.197479,261.347229 271.511810,262.726013 270.505188,264.214233 
z"/>
<path fill="#39B8BA" opacity="1.000000" stroke="none" 
	d="
M284.273865,373.703400 
	C285.123169,373.223877 286.319244,372.859650 287.746490,372.710968 
	C286.858643,373.223877 285.739655,373.521301 284.273865,373.703400 
z"/>
<path fill="#39B8BA" opacity="1.000000" stroke="none" 
	d="
M297.735168,340.384705 
	C296.910950,340.884033 295.739166,341.266602 294.329315,341.462921 
	C295.190063,340.940399 296.288818,340.604156 297.735168,340.384705 
z"/>
<path fill="#D5D9DC" opacity="1.000000" stroke="none" 
	d="
M131.752533,143.355148 
	C130.760071,143.943527 129.425201,144.395554 127.724045,144.688766 
	C128.708557,144.092896 130.059341,143.655838 131.752533,143.355148 
z"/>
<path fill="#D5D9DC" opacity="1.000000" stroke="none" 
	d="
M267.559784,268.329010 
	C267.866638,267.290314 268.492584,266.163483 269.465576,264.993286 
	C269.168030,266.046906 268.523468,267.143860 267.559784,268.329010 
z"/>
<path fill="#D5D9DC" opacity="1.000000" stroke="none" 
	d="
M234.824493,128.473953 
	C234.107117,129.033539 233.137299,129.441422 231.768448,129.699738 
	C232.436966,129.140854 233.504501,128.731552 234.824493,128.473953 
z"/>
<path fill="#39B8BA" opacity="1.000000" stroke="none" 
	d="
M316.758911,336.417511 
	C316.104675,336.953522 315.124054,337.384735 313.789978,337.709381 
	C314.435211,337.172760 315.433838,336.742737 316.758911,336.417511 
z"/>
<path fill="#D5D9DC" opacity="1.000000" stroke="none" 
	d="
M93.718323,199.082397 
	C93.465347,199.686050 92.889801,200.281876 91.974838,200.835480 
	C92.222191,200.220352 92.808975,199.647446 93.718323,199.082397 
z"/>
<path fill="#7096C3" opacity="1.000000" stroke="none" 
	d="
M160.923645,352.248047 
	C161.119354,352.677185 161.092041,353.292908 160.861069,354.001404 
	C160.671829,353.541016 160.686234,352.987854 160.923645,352.248047 
z"/>
<path fill="#5DB2CF" opacity="1.000000" stroke="none" 
	d="
M433.823547,211.447769 
	C433.668701,210.840302 433.766327,210.042160 434.140015,209.082886 
	C434.302734,209.700195 434.189362,210.478638 433.823547,211.447769 
z"/>
<path fill="#D5D9DC" opacity="1.000000" stroke="none" 
	d="
M273.538849,259.307861 
	C273.528992,258.647980 273.820007,257.883087 274.427368,257.028259 
	C274.442383,257.693146 274.141052,258.447998 273.538849,259.307861 
z"/>
<path fill="#D5D9DC" opacity="1.000000" stroke="none" 
	d="
M219.712418,35.096420 
	C219.408218,35.703575 218.780136,36.266663 217.809830,36.752380 
	C218.107925,36.134125 218.748230,35.593239 219.712418,35.096420 
z"/>
<path fill="#7096C3" opacity="1.000000" stroke="none" 
	d="
M165.097473,389.273315 
	C165.662598,389.547394 166.227005,390.136322 166.747009,391.060303 
	C166.167328,390.792938 165.632050,390.190521 165.097473,389.273315 
z"/>
<path fill="#5DB2CF" opacity="1.000000" stroke="none" 
	d="
M311.781403,25.775450 
	C311.339539,26.001297 310.706818,26.002056 309.995331,25.778702 
	C310.474579,25.553179 311.032532,25.551769 311.781403,25.775450 
z"/>
<path fill="#96B9EB" opacity="1.000000" stroke="none" 
	d="
M210.673706,383.434814 
	C210.635376,383.018250 210.871841,382.604370 211.315369,382.349792 
	C211.331131,382.818542 211.139816,383.128052 210.673706,383.434814 
z"/>
<path fill="#244556" opacity="1.000000" stroke="none" 
	d="
M236.979446,90.944473 
	C235.308243,95.805008 234.523895,100.891975 231.784592,104.490936 
	C226.129318,111.920914 217.069870,111.591560 210.774109,104.624107 
	C204.080231,97.216042 204.063690,83.577408 210.739517,76.120247 
	C217.603226,68.453239 228.658737,69.455040 233.693848,78.664604 
	C235.606155,82.162399 235.932175,86.527458 236.979446,90.944473 
M230.011093,83.134933 
	C230.172638,79.809135 229.415237,76.735069 225.441406,76.951126 
	C221.905228,77.143387 220.792496,80.171738 221.558167,83.172272 
	C221.972183,84.794716 223.901062,87.176285 225.122452,87.161957 
	C226.709824,87.143341 228.273270,85.082710 230.011093,83.134933 
z"/>
<path fill="#1C4153" opacity="1.000000" stroke="none" 
	d="
M266.224609,109.840347 
	C257.506409,108.056328 252.494965,101.985519 251.413895,92.365807 
	C250.505005,84.278427 255.432587,74.803375 262.179993,72.040672 
	C267.232971,69.971748 271.957916,70.758408 276.142639,74.348717 
	C284.959198,81.912964 285.417389,98.545517 276.542389,106.046028 
	C273.987427,108.205307 269.976562,108.641846 266.224609,109.840347 
M267.381989,79.178925 
	C267.258850,80.651070 266.524017,82.505920 267.151337,83.508507 
	C268.173126,85.141602 270.080841,87.226913 271.622070,87.232925 
	C273.038239,87.238449 275.314819,84.926834 275.647278,83.313538 
	C275.981903,81.689804 274.866608,78.928551 273.496155,78.041435 
	C272.265259,77.244675 269.825348,78.315681 267.381989,79.178925 
z"/>
<path fill="#DAE0E3" opacity="1.000000" stroke="none" 
	d="
M229.929047,83.517960 
	C228.273270,85.082710 226.709824,87.143341 225.122452,87.161957 
	C223.901062,87.176285 221.972183,84.794716 221.558167,83.172272 
	C220.792496,80.171738 221.905228,77.143387 225.441406,76.951126 
	C229.415237,76.735069 230.172638,79.809135 229.929047,83.517960 
z"/>
<path fill="#DFE3E6" opacity="1.000000" stroke="none" 
	d="
M267.650391,78.870850 
	C269.825348,78.315681 272.265259,77.244675 273.496155,78.041435 
	C274.866608,78.928551 275.981903,81.689804 275.647278,83.313538 
	C275.314819,84.926834 273.038239,87.238449 271.622070,87.232925 
	C270.080841,87.226913 268.173126,85.141602 267.151337,83.508507 
	C266.524017,82.505920 267.258850,80.651070 267.650391,78.870850 
z"/>
</svg>